<svg xmlns="http://www.w3.org/2000/svg">
    <symbol width="32" height="12" viewBox="0 0 32 12" id="arrow-long">
        <line y1="6" x2="26" y2="6" stroke="black" stroke-width="2"/>
        <path d="M32 6L25.25 11.1962L25.25 0.803848L32 6Z" fill="black"/>
    </symbol>
    <symbol width="24" height="12" viewBox="0 0 24 12" id="arrow-short">
        <line y1="6" x2="18" y2="6" stroke="black" stroke-width="2"/>
        <path d="M24 6L17.25 11.1962L17.25 0.803848L24 6Z" fill="black"/>
    </symbol>
    <symbol width="32" height="33" viewBox="0 0 32 33" fill="none" id="icon_alarm">
        <ellipse cx="21.2042" cy="11.3299" rx="1.0873" ry="1.08512" fill="white"/>
        <ellipse cx="10.3311" cy="11.3299" rx="1.08731" ry="1.08512" fill="white"/>
        <ellipse cx="10.3311" cy="24.3512" rx="1.08731" ry="1.08512" fill="white"/>
        <ellipse cx="15.7677" cy="26.5215" rx="1.0873" ry="1.08512" fill="white"/>
        <ellipse cx="7.06924" cy="17.7748" rx="1.08731" ry="1.08512" fill="white"/>
        <ellipse cx="24.4661" cy="17.7748" rx="1.0873" ry="1.08512" fill="white"/>
        <ellipse cx="21.2042" cy="24.3512" rx="1.0873" ry="1.08512" fill="white"/>
        <mask id="path-8-inside-1" fill="white">
        <path fill-rule="evenodd" clip-rule="evenodd" d="M20.9215 29.0581C21.3298 28.8622 21.8226 28.9298 22.1385 29.2542L23.9644 31.1292C24.2319 31.4039 24.6734 31.4039 24.941 31.1292C25.1987 30.8645 25.1987 30.4427 24.941 30.1781L23.5843 28.7849C23.1584 28.3475 23.2228 27.6356 23.682 27.2333C26.3238 24.9195 28 21.4688 28 17.6145C28 10.6477 22.5235 5 15.7678 5C9.01218 5 3.53564 10.6477 3.53564 17.6145C3.53564 21.4288 5.17729 24.8477 7.77166 27.1608C8.22438 27.5644 8.28489 28.2708 7.86173 28.7054L6.42757 30.1781C6.16985 30.4427 6.16984 30.8645 6.42756 31.1291C6.69513 31.4039 7.13664 31.4039 7.40421 31.1292L9.28384 29.199C9.60245 28.8718 10.1004 28.8061 10.5102 29.0076C12.103 29.7907 13.8858 30.229 15.7678 30.229C17.609 30.229 19.3553 29.8095 20.9215 29.0581ZM15.7678 28.8274C21.7728 28.8274 26.6409 23.8072 26.6409 17.6145C26.6409 11.4218 21.7728 6.40161 15.7678 6.40161C9.7628 6.40161 4.89478 11.4218 4.89478 17.6145C4.89478 23.8072 9.7628 28.8274 15.7678 28.8274ZM15.0083 17.298V13.5001V9.94092C15.0083 9.50942 15.3581 9.15963 15.7895 9.15963C16.221 9.15963 16.5708 9.50942 16.5708 9.94092V13.5001V17.298V17.8406V18.1226C16.5708 18.5661 16.2113 18.9257 15.7677 18.9257C15.3483 18.9257 15.0083 18.5857 15.0083 18.1663V17.8406V17.298Z"/>
        </mask>
        <path fill-rule="evenodd" clip-rule="evenodd" d="M20.9215 29.0581C21.3298 28.8622 21.8226 28.9298 22.1385 29.2542L23.9644 31.1292C24.2319 31.4039 24.6734 31.4039 24.941 31.1292C25.1987 30.8645 25.1987 30.4427 24.941 30.1781L23.5843 28.7849C23.1584 28.3475 23.2228 27.6356 23.682 27.2333C26.3238 24.9195 28 21.4688 28 17.6145C28 10.6477 22.5235 5 15.7678 5C9.01218 5 3.53564 10.6477 3.53564 17.6145C3.53564 21.4288 5.17729 24.8477 7.77166 27.1608C8.22438 27.5644 8.28489 28.2708 7.86173 28.7054L6.42757 30.1781C6.16985 30.4427 6.16984 30.8645 6.42756 31.1291C6.69513 31.4039 7.13664 31.4039 7.40421 31.1292L9.28384 29.199C9.60245 28.8718 10.1004 28.8061 10.5102 29.0076C12.103 29.7907 13.8858 30.229 15.7678 30.229C17.609 30.229 19.3553 29.8095 20.9215 29.0581ZM15.7678 28.8274C21.7728 28.8274 26.6409 23.8072 26.6409 17.6145C26.6409 11.4218 21.7728 6.40161 15.7678 6.40161C9.7628 6.40161 4.89478 11.4218 4.89478 17.6145C4.89478 23.8072 9.7628 28.8274 15.7678 28.8274ZM15.0083 17.298V13.5001V9.94092C15.0083 9.50942 15.3581 9.15963 15.7895 9.15963C16.221 9.15963 16.5708 9.50942 16.5708 9.94092V13.5001V17.298V17.8406V18.1226C16.5708 18.5661 16.2113 18.9257 15.7677 18.9257C15.3483 18.9257 15.0083 18.5857 15.0083 18.1663V17.8406V17.298Z" fill="white"/>
        <rect x="15" y="6" width="4" height="1.5" transform="rotate(-90 15 6)" fill="white"/>
        <rect x="8" y="2" width="15.5" height="1.5" rx="0.75" fill="white"/>
    </symbol>
    <symbol width="25" height="30" viewBox="0 0 25 30" fill="none" id="icon_eat">
        <path fill-rule="evenodd" clip-rule="evenodd" d="M18.6173 0.0761497C18.991 -0.0786313 19.4211 0.00692445 19.7071 0.292922C20.6156 1.20142 21.8038 3.17065 22.7659 6.21082C23.7373 9.28039 24.5 13.5081 24.5 19C24.5 19.5523 24.0523 20 23.5 20H20V29C20 29.5523 19.5523 30 19 30C18.4477 30 18 29.5523 18 29V1.00003C18 0.595567 18.2436 0.230931 18.6173 0.0761497ZM20 18H22.4912C22.4053 13.1836 21.7051 9.48755 20.8591 6.81424C20.5807 5.93457 20.2885 5.1715 20 4.51895V18Z" fill="white"/>
        <path fill-rule="evenodd" clip-rule="evenodd" d="M6 0C6.55228 0 7 0.447715 7 1V29C7 29.5523 6.55228 30 6 30C5.44772 30 5 29.5523 5 29V1C5 0.447715 5.44772 0 6 0Z" fill="white"/>
        <path fill-rule="evenodd" clip-rule="evenodd" d="M1.5 0C2.05228 0 2.5 0.447715 2.5 1V6.5C2.5 7.05686 2.69203 7.81518 3.20088 8.41656C3.68001 8.98281 4.51446 9.5 5.99993 9.5C6.55221 9.5 6.99993 9.94771 6.99993 10.5C6.99993 11.0523 6.55221 11.5 5.99993 11.5C3.98547 11.5 2.56995 10.7672 1.6741 9.70844C0.807973 8.68482 0.5 7.44314 0.5 6.5V1C0.5 0.447715 0.947715 0 1.5 0Z" fill="white"/>
        <path fill-rule="evenodd" clip-rule="evenodd" d="M10.5 0C9.94771 0 9.5 0.447715 9.5 1V6.5C9.5 7.05686 9.30797 7.81518 8.79912 8.41656C8.31999 8.98281 7.4854 9.5 5.99993 9.5C5.44765 9.5 5.00007 9.94771 5.00007 10.5C5.00007 11.0523 5.44765 11.5 5.99993 11.5C8.01439 11.5 9.43005 10.7672 10.3259 9.70844C11.192 8.68482 11.5 7.44314 11.5 6.5V1C11.5 0.447715 11.0523 0 10.5 0Z" fill="white"/>
    </symbol>
    <symbol width="30" height="32" viewBox="0 0 30 32" fill="none" id="icon_leaf">
        <g clip-path="url(#clip0)">
        <path d="M27.8438 2.767C27.7434 2.317 27.3647 2 26.9325 2C26.9306 2 26.9288 2 26.9269 2C21.9891 2.033 9.98156 2.916 5.13375 10.38C2.61562 14.258 2.39906 19.293 4.48969 25.345C4.50562 25.392 4.53844 25.424 4.56 25.467C3.81281 27.44 3.52312 28.753 3.51562 28.79C3.40687 29.33 3.73031 29.862 4.23656 29.978C4.30219 29.993 4.36781 30 4.43344 30C4.86562 30 5.25469 29.679 5.34937 29.21C5.36906 29.108 7.75781 18.837 16.2028 12.832C16.6341 12.526 16.7503 11.905 16.4625 11.445C16.1747 10.985 15.5934 10.86 15.1622 11.168C10.3734 14.573 7.42406 19.176 5.68969 22.824C4.44844 18.246 4.77375 14.447 6.67594 11.519C10.4194 5.755 19.2984 4.365 24.6581 4.071C23.505 5.872 22.245 9.174 22.245 15C22.245 18.12 21.4153 20.522 19.7803 22.14C17.1591 24.731 12.9009 24.974 9.78656 24.724C9.26906 24.679 8.82 25.095 8.78062 25.646C8.74125 26.196 9.12844 26.676 9.64406 26.718C10.2675 26.769 10.9331 26.8 11.625 26.8C14.7956 26.8 18.4941 26.137 21.0544 23.606C23.0888 21.595 24.12 18.7 24.12 15.001C24.12 5.902 27.3356 3.905 27.3516 3.896C27.7416 3.687 27.9459 3.219 27.8438 2.767Z" fill="white"/>
        </g>
        <defs>
        <clipPath id="clip0">
        <rect width="30" height="32" fill="white"/>
        </clipPath>
        </defs>
    </symbol>
    <symbol width="29" height="31" viewBox="0 0 29 31" fill="none" id="icon_tub">
        <g clip-path="url(#clip0)">
        <path d="M20.7762 18.4731C19.0702 18.4731 17.6877 19.9515 17.6877 21.7742C17.6877 23.5983 19.0707 25.0761 20.7762 25.0761C22.4818 25.0761 23.8643 23.5978 23.8643 21.7742C23.8643 19.951 22.4813 18.4731 20.7762 18.4731ZM20.7762 23.4864C19.8922 23.4864 19.1753 22.7201 19.1753 21.7751C19.1753 20.8291 19.8922 20.0633 20.7762 20.0633C21.6603 20.0633 22.3776 20.8291 22.3776 21.7751C22.3776 22.7201 21.6603 23.4864 20.7762 23.4864Z" fill="white"/>
        <path d="M11.6068 -0.0101318C9.84641 -0.0101318 8.41952 1.51468 8.41952 3.39696C8.41952 5.27924 9.84596 6.80357 11.6068 6.80357C13.3676 6.80357 14.7941 5.27973 14.7941 3.39696C14.7936 1.5142 13.3672 -0.0101318 11.6068 -0.0101318ZM11.6063 5.46573C10.5374 5.46573 9.67105 4.5396 9.67105 3.39648C9.67105 2.25384 10.5374 1.32723 11.6063 1.32723C12.6757 1.32723 13.5421 2.25384 13.5421 3.39648C13.5421 4.5396 12.6757 5.46573 11.6063 5.46573Z" fill="white"/>
        <path d="M8.22693 17.6105C6.93326 17.6105 5.88563 18.7303 5.88563 20.1132C5.88563 21.4956 6.93326 22.616 8.22693 22.616C9.5206 22.616 10.5682 21.4956 10.5682 20.1132C10.5682 18.7308 9.5206 17.6105 8.22693 17.6105ZM8.00001 19.5C7.541 19.5 9.15819 20.6039 9.15819 20.1132C9.15819 19.6235 7.541 20.5 8.00001 20.5C8.45857 20.5 9.05705 19.6226 9.05705 20.1123C9.05705 20.6029 8.45857 19.5 8.00001 19.5Z" fill="white"/>
        <path d="M18.5002 9.76265C18.5002 9.76265 21.5402 8.9242 24.6781 11.2565C25.5852 12.0164 26.4435 12.5929 25.8304 13.379C25.4869 13.7195 25.1933 14.0358 24.1144 12.8549C23.0604 12.0949 21.3947 10.9566 18.5002 11.4134C17.3724 11.6498 16.5386 11.9641 14.9445 13.5626C13.3509 15.161 10.9724 16.2877 8.44715 16.0518C5.92189 15.8164 4.59831 14.7939 3.20087 13.5098C2.9068 13.0903 2.9068 12.6447 3.07808 12.3826C3.24936 12.1206 3.91137 11.8585 4.27931 12.2514C4.64725 12.6447 6.3877 14.217 8.10369 14.3216C9.82012 14.4262 11.5366 14.5313 13.8407 12.356C16.1467 10.1821 17.299 10.0247 18.5002 9.76265Z" fill="white"/>
        <mask id="path-5-inside-1" fill="white">
        <path d="M28.6457 26.8156V8.15743C28.6457 7.57909 28.2718 7.5074 28.1218 7.50208H27.6162C27.1227 7.50208 27.0797 8.05862 27.0783 8.24075C27.0783 8.25867 27.0783 8.27368 27.0783 8.29161C27.0783 8.29306 27.0783 8.30129 27.0783 8.30129C27.0797 11.9099 27.0874 26.5545 27.0765 26.8412C27.0642 27.1692 27.0031 28.0076 26.2554 28.7284C25.447 29.4234 24.6378 29.3314 24.6378 29.3314C24.6378 29.3314 4.46056 29.3314 3.98251 29.3048C3.60279 29.2394 2.94078 29.095 2.37664 28.2958C1.81295 27.4966 1.92351 26.4484 1.92351 26.4484V8.31486C1.92351 7.4764 1.24926 7.50256 1.24926 7.50256H0.942042C0.405995 7.50256 0.356604 8.09059 0.353886 8.27901C0.353886 11.7408 0.353886 25.6468 0.353886 26.816C0.353886 28.1529 0.807464 29.2137 1.90176 30.1529C2.9956 31.0916 4.27659 31.0093 4.27659 31.0093C4.27659 31.0093 24.0002 31.0093 24.8584 31.0069C25.7167 31.0044 26.844 30.5903 27.7743 29.4515C28.7037 28.3128 28.6457 26.8156 28.6457 26.8156Z"/>
        </mask>
        <path d="M28.6457 26.8156V8.15743C28.6457 7.57909 28.2718 7.5074 28.1218 7.50208H27.6162C27.1227 7.50208 27.0797 8.05862 27.0783 8.24075C27.0783 8.25867 27.0783 8.27368 27.0783 8.29161C27.0783 8.29306 27.0783 8.30129 27.0783 8.30129C27.0797 11.9099 27.0874 26.5545 27.0765 26.8412C27.0642 27.1692 27.0031 28.0076 26.2554 28.7284C25.447 29.4234 24.6378 29.3314 24.6378 29.3314C24.6378 29.3314 4.46056 29.3314 3.98251 29.3048C3.60279 29.2394 2.94078 29.095 2.37664 28.2958C1.81295 27.4966 1.92351 26.4484 1.92351 26.4484V8.31486C1.92351 7.4764 1.24926 7.50256 1.24926 7.50256H0.942042C0.405995 7.50256 0.356604 8.09059 0.353886 8.27901C0.353886 11.7408 0.353886 25.6468 0.353886 26.816C0.353886 28.1529 0.807464 29.2137 1.90176 30.1529C2.9956 31.0916 4.27659 31.0093 4.27659 31.0093C4.27659 31.0093 24.0002 31.0093 24.8584 31.0069C25.7167 31.0044 26.844 30.5903 27.7743 29.4515C28.7037 28.3128 28.6457 26.8156 28.6457 26.8156Z" fill="white"/>
        </g>
        <defs>
        <clipPath id="clip0">
        <rect width="29" height="31" fill="white"/>
        </clipPath>
        </defs>
    </symbol>
    <symbol width="27" height="34" viewBox="0 0 27 34" fill="none" id="academy-img">
        <path d="M13.6426 0.0157537L13.5 0L0 1.40733V26.0129L13.5 34L27 26.0129V1.40733L13.6426 0.0157537ZM25.2344 25.0151L13.5 31.9573L1.76561 25.0151V14.9293L13.4507 21.8451L13.4701 23.0984L5.45351 18.3548L5.44295 19.5801L13.4894 24.3885L13.5088 25.675L5.46408 20.9174L5.45351 22.1427L13.5 26.9511L21.6239 22.1182V20.8929V16.909L25.2432 14.7595L25.2344 25.0151ZM25.2344 13.4519L22.0147 15.3319L20.5325 16.2071L13.4666 12.0201L13.456 13.2454L19.4957 16.818L19.4429 16.8495L19.3126 16.9247L18.4536 17.4166L13.4666 14.4689L13.456 15.6942L17.3921 18.0222L16.4591 18.6314L16.438 18.6436L13.4666 16.902L13.456 18.1273L15.4029 19.2615L13.4155 20.4483L1.7973 13.5762L13.4349 6.61831L25.2344 13.4519ZM25.2344 12.2266L13.4401 5.31075L1.76561 12.2196V2.9897L13.5 1.76442L25.2344 2.9897V12.2266Z" fill="#666666"/>
    </symbol>
    <symbol width="113" height="16" viewBox="0 0 113 16" fill="none" id="academy-text">
        <path d="M0.28125 12V0.546875H1.79688V5.25H7.75V0.546875H9.26562V12H7.75V6.60156H1.79688V12H0.28125ZM14.7109 12V1.89844H10.9375V0.546875H20.0156V1.89844H16.2266V12H14.7109ZM21.5312 12V0.546875H23.8125L26.5234 8.65625C26.7734 9.41146 26.9557 9.97656 27.0703 10.3516C27.2005 9.9349 27.4036 9.32292 27.6797 8.51562L30.4219 0.546875H32.4609V12H31V2.41406L27.6719 12H26.3047L22.9922 2.25V12H21.5312ZM34.8438 12V0.546875H36.3594V10.6484H42V12H34.8438ZM45.5234 12L49.9219 0.546875H51.5547L56.2422 12H54.5156L53.1797 8.53125H48.3906L47.1328 12H45.5234ZM48.8281 7.29688H52.7109L51.5156 4.125C51.151 3.16146 50.8802 2.36979 50.7031 1.75C50.5573 2.48438 50.3516 3.21354 50.0859 3.9375L48.8281 7.29688ZM62.6875 8.96094L64.0703 9.14062C63.9193 10.0938 63.5312 10.8411 62.9062 11.3828C62.2865 11.9193 61.5234 12.1875 60.6172 12.1875C59.4818 12.1875 58.5677 11.8177 57.875 11.0781C57.1875 10.3333 56.8438 9.26823 56.8438 7.88281C56.8438 6.98698 56.9922 6.20312 57.2891 5.53125C57.5859 4.85938 58.0365 4.35677 58.6406 4.02344C59.25 3.6849 59.9115 3.51562 60.625 3.51562C61.526 3.51562 62.263 3.74479 62.8359 4.20312C63.4089 4.65625 63.776 5.30208 63.9375 6.14062L62.5703 6.35156C62.4401 5.79427 62.2083 5.375 61.875 5.09375C61.5469 4.8125 61.1484 4.67188 60.6797 4.67188C59.9714 4.67188 59.3958 4.92708 58.9531 5.4375C58.5104 5.94271 58.2891 6.74479 58.2891 7.84375C58.2891 8.95833 58.5026 9.76823 58.9297 10.2734C59.3568 10.7786 59.9141 11.0312 60.6016 11.0312C61.1536 11.0312 61.6146 10.862 61.9844 10.5234C62.3542 10.1849 62.5885 9.66406 62.6875 8.96094ZM70.6875 10.9766C70.1667 11.4193 69.6641 11.7318 69.1797 11.9141C68.7005 12.0964 68.1849 12.1875 67.6328 12.1875C66.7214 12.1875 66.0208 11.9661 65.5312 11.5234C65.0417 11.0755 64.7969 10.5052 64.7969 9.8125C64.7969 9.40625 64.888 9.03646 65.0703 8.70312C65.2578 8.36458 65.5 8.09375 65.7969 7.89062C66.099 7.6875 66.4375 7.53385 66.8125 7.42969C67.0885 7.35677 67.5052 7.28646 68.0625 7.21875C69.1979 7.08333 70.0339 6.92188 70.5703 6.73438C70.5755 6.54167 70.5781 6.41927 70.5781 6.36719C70.5781 5.79427 70.4453 5.39062 70.1797 5.15625C69.8203 4.83854 69.2865 4.67969 68.5781 4.67969C67.9167 4.67969 67.4271 4.79688 67.1094 5.03125C66.7969 5.26042 66.5651 5.66927 66.4141 6.25781L65.0391 6.07031C65.1641 5.48177 65.3698 5.00781 65.6562 4.64844C65.9427 4.28385 66.3568 4.00521 66.8984 3.8125C67.4401 3.61458 68.0677 3.51562 68.7812 3.51562C69.4896 3.51562 70.0651 3.59896 70.5078 3.76562C70.9505 3.93229 71.276 4.14323 71.4844 4.39844C71.6927 4.64844 71.8385 4.96615 71.9219 5.35156C71.9688 5.59115 71.9922 6.02344 71.9922 6.64844V8.52344C71.9922 9.83073 72.0208 10.6589 72.0781 11.0078C72.1406 11.3516 72.2604 11.6823 72.4375 12H70.9688C70.8229 11.7083 70.7292 11.3672 70.6875 10.9766ZM70.5703 7.83594C70.0599 8.04427 69.2943 8.22135 68.2734 8.36719C67.6953 8.45052 67.2865 8.54427 67.0469 8.64844C66.8073 8.7526 66.6224 8.90625 66.4922 9.10938C66.362 9.30729 66.2969 9.52865 66.2969 9.77344C66.2969 10.1484 66.4375 10.4609 66.7188 10.7109C67.0052 10.9609 67.4219 11.0859 67.9688 11.0859C68.5104 11.0859 68.9922 10.9688 69.4141 10.7344C69.8359 10.4948 70.1458 10.1693 70.3438 9.75781C70.4948 9.4401 70.5703 8.97135 70.5703 8.35156V7.83594ZM79.5625 12V10.9531C79.0365 11.776 78.263 12.1875 77.2422 12.1875C76.5807 12.1875 75.9714 12.0052 75.4141 11.6406C74.862 11.276 74.4323 10.7682 74.125 10.1172C73.8229 9.46094 73.6719 8.70833 73.6719 7.85938C73.6719 7.03125 73.8099 6.28125 74.0859 5.60938C74.362 4.93229 74.776 4.41406 75.3281 4.05469C75.8802 3.69531 76.4974 3.51562 77.1797 3.51562C77.6797 3.51562 78.125 3.6224 78.5156 3.83594C78.9062 4.04427 79.224 4.31771 79.4688 4.65625V0.546875H80.8672V12H79.5625ZM75.1172 7.85938C75.1172 8.92188 75.3411 9.71615 75.7891 10.2422C76.237 10.7682 76.7656 11.0312 77.375 11.0312C77.9896 11.0312 78.5104 10.7812 78.9375 10.2812C79.3698 9.77604 79.5859 9.00781 79.5859 7.97656C79.5859 6.84115 79.3672 6.00781 78.9297 5.47656C78.4922 4.94531 77.9531 4.67969 77.3125 4.67969C76.6875 4.67969 76.1641 4.9349 75.7422 5.44531C75.3255 5.95573 75.1172 6.76042 75.1172 7.85938ZM88.7656 9.32812L90.2188 9.50781C89.9896 10.3568 89.5651 11.0156 88.9453 11.4844C88.3255 11.9531 87.5339 12.1875 86.5703 12.1875C85.3568 12.1875 84.3932 11.8151 83.6797 11.0703C82.9714 10.3203 82.6172 9.27083 82.6172 7.92188C82.6172 6.52604 82.9766 5.44271 83.6953 4.67188C84.4141 3.90104 85.3464 3.51562 86.4922 3.51562C87.6016 3.51562 88.5078 3.89323 89.2109 4.64844C89.9141 5.40365 90.2656 6.46615 90.2656 7.83594C90.2656 7.91927 90.263 8.04427 90.2578 8.21094H84.0703C84.1224 9.1224 84.3802 9.82031 84.8438 10.3047C85.3073 10.7891 85.8854 11.0312 86.5781 11.0312C87.0938 11.0312 87.5339 10.8958 87.8984 10.625C88.263 10.3542 88.5521 9.92188 88.7656 9.32812ZM84.1484 7.05469H88.7812C88.7188 6.35677 88.5417 5.83333 88.25 5.48438C87.8021 4.94271 87.2214 4.67188 86.5078 4.67188C85.862 4.67188 85.3177 4.88802 84.875 5.32031C84.4375 5.7526 84.1953 6.33073 84.1484 7.05469ZM91.9922 12V3.70312H93.25V4.86719C93.5104 4.46094 93.8568 4.13542 94.2891 3.89062C94.7214 3.64062 95.2135 3.51562 95.7656 3.51562C96.3802 3.51562 96.8828 3.64323 97.2734 3.89844C97.6693 4.15365 97.9479 4.51042 98.1094 4.96875C98.7656 4 99.6198 3.51562 100.672 3.51562C101.495 3.51562 102.128 3.74479 102.57 4.20312C103.013 4.65625 103.234 5.35677 103.234 6.30469V12H101.836V6.77344C101.836 6.21094 101.789 5.80729 101.695 5.5625C101.607 5.3125 101.443 5.11198 101.203 4.96094C100.964 4.8099 100.682 4.73438 100.359 4.73438C99.776 4.73438 99.2917 4.92969 98.9062 5.32031C98.5208 5.70573 98.3281 6.32552 98.3281 7.17969V12H96.9219V6.60938C96.9219 5.98438 96.8073 5.51562 96.5781 5.20312C96.349 4.89062 95.974 4.73438 95.4531 4.73438C95.0573 4.73438 94.6901 4.83854 94.3516 5.04688C94.0182 5.25521 93.776 5.5599 93.625 5.96094C93.474 6.36198 93.3984 6.9401 93.3984 7.69531V12H91.9922ZM105.258 15.1953L105.102 13.875C105.409 13.9583 105.677 14 105.906 14C106.219 14 106.469 13.9479 106.656 13.8438C106.844 13.7396 106.997 13.5938 107.117 13.4062C107.206 13.2656 107.349 12.9167 107.547 12.3594C107.573 12.2812 107.615 12.1667 107.672 12.0156L104.523 3.70312H106.039L107.766 8.50781C107.99 9.11719 108.19 9.75781 108.367 10.4297C108.529 9.78385 108.721 9.15365 108.945 8.53906L110.719 3.70312H112.125L108.969 12.1406C108.63 13.0521 108.367 13.6797 108.18 14.0234C107.93 14.487 107.643 14.8255 107.32 15.0391C106.997 15.2578 106.612 15.3672 106.164 15.3672C105.893 15.3672 105.591 15.3099 105.258 15.1953Z" fill="#444444"/>
    </symbol>
    <symbol width="70" height="60" viewBox="0 0 70 60" fill="none" id="logo-desktop">
        <path d="M59.8825 24.2098C58.1585 20.0433 55.3821 16.4052 51.83 13.6582C48.2778 10.9111 44.074 9.15109 39.6374 8.55344C35.2008 7.95579 30.6864 8.54141 26.5441 10.2519C22.4017 11.9624 18.7762 14.7381 16.0287 18.3023C13.2812 21.8666 11.5077 26.0948 10.885 30.5658C10.2622 35.0368 10.812 39.5943 12.4795 43.7842C14.147 47.9741 16.874 51.65 20.3887 54.4457C23.9034 57.2413 28.083 59.059 32.5111 59.7176C31.9311 57.6093 31.3411 55.2791 30.8211 52.8077C32.3339 53.7975 33.9262 54.658 35.5813 55.38C35.5813 55.38 35.7013 57.5588 35.8613 59.9899C37.6496 60.021 39.4362 59.8621 41.1916 59.5158C41.1462 59.2623 41.1462 59.0027 41.1916 58.7492C41.4816 56.8628 42.2816 53.4634 42.4416 51.2744C43.595 50.1862 44.5734 48.9236 45.3418 47.5319L45.2818 47.9758C44.7317 52.273 43.5817 56.8628 42.8817 58.1338C42.655 58.5546 42.3761 58.9444 42.0516 59.2939C45.6716 58.4373 49.0636 56.7968 51.9924 54.4862C54.9212 52.1755 57.3168 49.25 59.013 45.9125C60.7093 42.5749 61.6656 38.9052 61.8158 35.1577C61.9659 31.4102 61.3062 27.6746 59.8825 24.2098ZM58.4124 28.033C57.9724 28.4667 57.0624 28.7592 56.9123 27.4479C56.7623 26.1365 56.7223 25.2186 56.7223 25.2186C56.7223 25.2186 54.7922 21.7586 54.0722 21.7182C53.3522 21.6779 48.2419 25.2186 46.8918 26.7619C45.7218 28.0632 45.4918 27.9724 45.4918 30.2623C45.4918 31.9872 45.7118 38.5037 45.5918 43.4869L37.4414 45.6759C34.8796 46.4175 32.2744 46.9969 29.641 47.4109L28.6409 41.5299H28.5009L25.9308 28.2448C25.9308 28.2448 22.1206 26.7922 20.7206 26.3988C20.0632 26.1087 19.3372 26.0144 18.6284 26.127C17.9196 26.2396 17.2575 26.5544 16.7204 27.0343C16.1723 27.5183 15.7342 28.1157 15.4356 28.7859C15.1371 29.4561 14.9852 30.1833 14.9903 30.918C15.2017 31.3868 15.3626 31.8772 15.4703 32.3806C15.5203 32.8648 14.2702 32.8144 13.4702 32.8144C12.6702 32.8144 12.5502 31.3618 13.1802 29.657C13.6717 28.3462 14.2809 27.0834 15.0003 25.8843C15.5413 24.8133 16.2392 23.8305 17.0704 22.9691C17.0704 22.9691 17.2104 22.6261 18.3204 22.727C19.4305 22.8278 25.6008 23.1607 25.6008 23.1607L25.6508 20.8709C32.3575 19.9368 39.1216 19.4851 45.8918 19.5192C45.8918 20.1345 45.8918 20.7498 45.8918 21.3652C48.4562 20.1847 51.2175 19.5004 54.0322 19.3477C54.1828 19.3438 54.332 19.3778 54.4664 19.4464C54.6008 19.5151 54.7162 19.6163 54.8022 19.7411C55.1423 20.1749 57.2124 22.7673 57.4524 23.1406C58.1246 24.1097 58.7359 25.1204 59.2825 26.1668C59.0951 26.8293 58.8012 27.4564 58.4124 28.0229V28.033Z" fill="#FDC305"/>
        <path d="M56.4628 21.8594C56.9329 22.4647 57.3429 22.9993 57.4629 23.1607C58.1351 24.1298 58.7464 25.1406 59.293 26.1869C59.1027 26.8278 58.8124 27.4339 58.4329 27.9825C57.9929 28.4163 57.0829 28.7088 56.9329 27.3974C56.7829 26.0861 56.7229 25.2186 56.7229 25.2186C56.7229 25.2186 54.7928 21.7586 54.0727 21.7182C53.3527 21.6779 48.2424 25.2186 46.8924 26.7619C45.7223 28.0632 45.4923 27.9724 45.4923 30.2623C45.4923 31.7754 45.6623 36.9704 45.6223 41.5904C47.4324 41.7922 50.0925 42.2966 50.8926 43.4869C50.8926 43.4869 50.6026 36.2441 58.703 40.037C58.703 40.037 58.983 30.1614 70.1635 32.6933C66.3628 28.1922 61.7035 24.5079 56.4628 21.8594Z" fill="#F06351"/>
        <path d="M45.9323 19.5192C45.9729 13.9295 45.5043 8.34783 44.5322 2.84465C44.5322 2.84465 44.3822 1.53329 43.6622 2.60255C43.068 3.88085 42.6636 5.24042 42.4621 6.63752C38.1871 6.36084 33.896 6.47563 29.6415 6.9805C28.8214 4.20645 27.4214 2.94553 26.7513 3.27841C26.0813 3.6113 26.0013 6.58709 26.0013 6.58709L25.6713 20.8709C32.3846 19.9359 39.1554 19.4841 45.9323 19.5192Z" fill="#F06351"/>
        <path d="M45.3515 47.5319C45.4815 46.4526 45.5515 45.0202 45.5915 43.4364L37.4415 45.6254C34.8809 46.384 32.2758 46.9804 29.6415 47.4109L30.7515 52.4546C30.7515 52.5656 30.7515 52.6765 30.8215 52.7875C32.3342 53.7774 33.9265 54.6378 35.5815 55.3598C38.0002 54.1935 40.3038 52.7986 42.4615 51.1937V51.2542C43.6096 50.1714 44.5845 48.9158 45.3515 47.5319Z" fill="#E55645"/>
        <path d="M32.0016 16.3618C31.9516 16.2609 33.0016 17.0477 33.4116 17.2898C33.8216 17.5319 34.0216 17.7135 34.0216 17.885C34.0216 18.0565 33.7616 18.228 33.4016 18.228C33.0416 18.228 32.4816 18.1069 32.4016 17.9657C32.3216 17.8245 33.0016 17.9657 33.3416 17.9657H33.6316C33.0159 17.5114 32.4672 16.9714 32.0016 16.3618Z" fill="black"/>
        <path d="M39.502 16.4728C39.502 16.4728 38.502 17.764 38.412 17.8245C38.322 17.885 38.2419 18.1675 38.6019 18.117C39.0152 18.0548 39.4231 17.9604 39.8219 17.8346C39.9319 17.774 39.892 17.6328 39.702 17.653C39.512 17.6732 39.022 17.7034 38.702 17.764L39.5519 16.4829C39.5519 16.4829 39.582 16.3618 39.502 16.4728Z" fill="black"/>
        <path d="M36.3617 22.6362C36.8253 22.4302 37.2084 22.0756 37.4517 21.6274C37.7317 20.9617 37.4517 20.7095 37.0117 20.6187C36.4064 20.5073 35.7817 20.6297 35.2617 20.9617C34.8717 21.3349 34.9217 21.6981 35.2617 21.9704C35.5995 22.2376 35.9691 22.4613 36.3617 22.6362Z" fill="black"/>
        <path d="M36.0016 23.9072C35.8868 24.136 35.7308 24.3412 35.5416 24.5124C35.2568 24.7436 34.9067 24.8778 34.5416 24.8958C33.991 24.9503 33.4405 24.7916 33.0016 24.4519C32.8 24.333 32.6206 24.1793 32.4716 23.998C32.3715 23.8881 32.2486 23.802 32.1116 23.7458C32.1116 23.7458 32.8616 27.8917 34.6816 28.5575C36.5016 29.2233 36.8416 27.7909 36.8916 27.4075C36.9525 26.2595 36.6666 25.1198 36.0716 24.1392C36.0716 23.8366 36.0516 24.0383 36.0016 23.9072Z" fill="#F06351"/>
        <path d="M34.3015 25.0572C33.8335 24.9893 33.384 24.8265 32.9801 24.5786C32.5763 24.3306 32.2263 24.0027 31.9515 23.6147C31.9269 23.5869 31.9133 23.551 31.9133 23.5138C31.9133 23.4766 31.9269 23.4407 31.9515 23.4129C31.9646 23.3995 31.9801 23.3888 31.9973 23.3816C32.0145 23.3743 32.0329 23.3705 32.0515 23.3705C32.0702 23.3705 32.0886 23.3743 32.1058 23.3816C32.1229 23.3888 32.1385 23.3995 32.1515 23.4129C32.399 23.7631 32.7129 24.0603 33.0751 24.2871C33.4374 24.5139 33.8406 24.666 34.2615 24.7344C34.5945 24.7091 34.9168 24.6045 35.2019 24.4292C35.487 24.2538 35.7268 24.0127 35.9015 23.7256L36.0415 23.534L36.1415 23.7559C36.1415 23.7559 36.5215 24.5225 37.1415 24.5629C37.7615 24.6032 38.2015 24.1392 38.7715 23.2616C38.7927 23.2295 38.8257 23.2072 38.8632 23.1996C38.9007 23.1921 38.9397 23.1998 38.9715 23.2212C39.0034 23.2427 39.0254 23.2759 39.0329 23.3138C39.0404 23.3516 39.0327 23.3909 39.0115 23.423C38.3449 24.4116 37.7149 24.8857 37.1215 24.8453C36.8922 24.8147 36.6726 24.7326 36.4788 24.6052C36.285 24.4778 36.1219 24.3082 36.0015 24.1089C35.8059 24.3845 35.5518 24.6127 35.2577 24.7767C34.9636 24.9407 34.6369 25.0365 34.3015 25.0572Z" fill="black"/>
        <path d="M36.2616 38.6348C38.3327 38.6348 40.0116 36.9412 40.0116 34.8521C40.0116 32.7629 38.3327 31.0693 36.2616 31.0693C34.1905 31.0693 32.5116 32.7629 32.5116 34.8521C32.5116 36.9412 34.1905 38.6348 36.2616 38.6348Z" fill="#FDC305"/>
        <path d="M41.2316 31.7754L38.1016 33.0968L39.2516 27.4176L31.7516 37.2629L34.8816 35.9415L33.7316 41.6308L41.2316 31.7754ZM33.8416 35.6389L38.0016 30.1816L37.1916 34.2165L39.1916 33.3894L35.0016 38.8568L35.8116 34.8218L33.8416 35.6389Z" fill="#111111"/>
        <path d="M32.4415 34.156C33.0601 34.156 33.5615 33.6502 33.5615 33.0262C33.5615 32.4023 33.0601 31.8964 32.4415 31.8964C31.823 31.8964 31.3215 32.4023 31.3215 33.0262C31.3215 33.6502 31.823 34.156 32.4415 34.156Z" fill="#111111"/>
        <path d="M38.9619 38.2515C39.3982 38.2515 39.7519 37.8947 39.7519 37.4546C39.7519 37.0145 39.3982 36.6577 38.9619 36.6577C38.5256 36.6577 38.1719 37.0145 38.1719 37.4546C38.1719 37.8947 38.5256 38.2515 38.9619 38.2515Z" fill="#111111"/>
        <path d="M39.9219 36.0625C40.1152 36.0625 40.2719 35.9045 40.2719 35.7095C40.2719 35.5145 40.1152 35.3564 39.9219 35.3564C39.7286 35.3564 39.5719 35.5145 39.5719 35.7095C39.5719 35.9045 39.7286 36.0625 39.9219 36.0625Z" fill="#111111"/>
        <path d="M45.8822 21.345C44.077 22.9865 42.3768 24.7419 40.792 26.6005C39.2133 28.4458 37.4318 30.1041 35.4817 31.5434C35.2617 31.0087 33.8516 30.0101 33.8516 30.0101C33.8516 30.0101 30.7115 27.8413 28.6514 26.1365C27.5377 25.2009 26.4886 24.1898 25.5112 23.1103L23.5111 22.9993C26.3983 27.2534 30.628 30.3963 35.5117 31.9166C36.3717 31.7754 38.7919 30.0303 40.602 28.6079C42.7434 26.7709 44.7489 24.7784 46.6022 22.6463C47.1004 22.0491 47.4867 21.3654 47.7423 20.6288C46.6023 21.0121 45.8822 21.345 45.8822 21.345Z" fill="#F06351"/>
        <path d="M65.2227 3.5306L56.7627 13.0531L55.5427 11.0457L63.6927 0L65.2227 3.5306Z" fill="#FDC305"/>
        <path d="M62.6531 17.4109L68.1931 13.265L67.4131 9.49226L62.0131 14.3443L62.6531 17.4109Z" fill="#FDC305"/>
        <path d="M59.923 49.8016L66.053 53.0094L69.063 50.649L62.373 47.8749L59.923 49.8016Z" fill="#FDC305"/>
        <path d="M1.94995 6.02219L5.01995 2.63282L14.31 11.7115L13.09 14.0114L1.94995 6.02219Z" fill="#FDC305"/>
        <path d="M7.38003 16.4223L2.68003 13.265L0.280029 17.1688L5.43003 19.5898L7.38003 16.4223Z" fill="#FDC305"/>
        <path d="M13.91 53.0094L9.35999 56.3887L12.16 60L16.18 55.9449L13.91 53.0094Z" fill="#FDC305"/>
        <path d="M25.9313 28.2448C25.9313 28.2448 22.1211 26.7922 20.721 26.3988C20.0636 26.1087 19.3377 26.0144 18.6289 26.127C17.9201 26.2396 17.258 26.5544 16.7208 27.0343C16.1728 27.5183 15.7346 28.1157 15.4361 28.7859C15.1375 29.4561 14.9856 30.1833 14.9907 30.918C15.2021 31.3868 15.3631 31.8772 15.4708 32.3806C15.5208 32.8648 14.2707 32.8144 13.4707 32.8144C12.6706 32.8144 12.5506 31.3618 13.1807 29.657C13.6722 28.3462 14.2814 27.0834 15.0007 25.8843C9.55047 28.7492 0 35.3665 0 35.3665C2.73182 35.2003 5.47292 35.2814 8.1904 35.6086C13.4407 36.1432 13.1907 40.3194 13.1907 40.3194C15.0373 39.8059 16.9192 39.4316 18.8209 39.1997C20.941 39.0585 21.091 41.3383 21.091 41.3383L21.6211 45.232C22.4259 44.3537 23.3134 43.5564 24.2712 42.8514C25.5057 41.8545 27.0776 41.3839 28.6514 41.54L25.9313 28.2448Z" fill="#F06351"/>
    </symbol>
    <symbol width="34" height="38" viewBox="0 0 34 38" fill="none" id="logo-img">
        <g clip-path="url(#clip0)">
        <path d="M6.07 20.72V18.46C12.7536 17.5423 19.4937 17.0979 26.24 17.13C26.24 17.73 26.24 18.34 26.18 18.95C28.0976 18.099 30.1128 17.4877 32.18 17.13C30.8625 13.722 28.4618 10.8412 25.3471 8.93087C22.2324 7.02052 18.5764 6.1864 14.9414 6.55683C11.3064 6.92727 7.89379 8.48172 5.22852 10.9811C2.56325 13.4804 0.792969 16.7863 0.190001 20.39L6.07 20.72Z" fill="#FDC305"/>
        <path d="M27.24 24.23C26.08 25.51 25.85 25.43 25.85 27.68C25.85 28.59 25.85 32.58 25.85 36.86C28.1425 35.346 30.0245 33.2879 31.328 30.8694C32.6315 28.4509 33.3158 25.7474 33.32 23C33.3068 21.9591 33.1997 20.9216 33 19.9C30.9282 21.1295 28.9967 22.5814 27.24 24.23Z" fill="#FDC305"/>
        <path d="M6.36 25.72C6.36 25.72 2.57 24.28 1.17 23.89C0.787067 23.7693 0.396097 23.6757 0 23.61C0.108395 26.496 0.965588 29.3041 2.48739 31.7586C4.00919 34.2131 6.14326 36.2296 8.68 37.61L6.36 25.72Z" fill="#FDC305"/>
        <path d="M26.29 17.12C26.3307 11.5986 25.862 6.08528 24.89 0.65C24.89 0.65 24.75 -0.64 24 0.41C23.4109 1.65814 23.0067 2.98539 22.8 4.35C18.5418 4.07577 14.2675 4.18957 10.03 4.69C9.24 2 7.85 0.75 7.18 1C6.51 1.25 6.46 4.31 6.46 4.31L6.13 18.41C12.8113 17.506 19.548 17.0749 26.29 17.12Z" fill="#F06351"/>
        <path d="M12.41 14C12.41 13.91 13.41 14.68 13.82 14.92C14.23 15.16 14.43 15.34 14.43 15.51C14.43 15.68 14.16 15.85 13.8 15.85C13.44 15.85 12.89 15.73 12.8 15.58H13.74H14.03C13.4207 15.1294 12.8757 14.5978 12.41 14Z" fill="black"/>
        <path d="M19.89 14.11L18.8 15.44C18.8 15.5 18.63 15.79 18.98 15.74C19.3942 15.6783 19.8023 15.5812 20.2 15.45C20.31 15.45 20.27 15.26 20.09 15.28C19.91 15.3 19.4 15.33 19.09 15.39L19.93 14.13C19.93 14.13 20 14 19.89 14.11Z" fill="black"/>
        <path d="M16.75 20.2C17.2135 19.9958 17.5967 19.6443 17.84 19.2C18.12 18.55 17.84 18.29 17.4 18.2C16.7979 18.0902 16.1765 18.2116 15.66 18.54C15.27 18.9 15.32 19.26 15.61 19.54C15.9613 19.8062 16.3442 20.0279 16.75 20.2Z" fill="black"/>
        <path d="M16.35 21.45C16.2379 21.6785 16.0816 21.8825 15.89 22.05C15.6052 22.2791 15.2551 22.4122 14.89 22.43C14.3638 22.472 13.8406 22.3189 13.42 22C13.2222 21.8808 13.0436 21.7324 12.89 21.56C12.7895 21.4491 12.6669 21.3605 12.53 21.3C12.53 21.3 13.28 25.4 15.1 26.05C16.92 26.7 17.24 25.3 17.3 24.92C17.3601 23.7851 17.0742 22.6588 16.48 21.69C16.46 21.38 16.45 21.58 16.35 21.45Z" fill="#F06351"/>
        <path d="M14.71 22.59C14.2453 22.5247 13.7989 22.3651 13.3982 22.1209C12.9975 21.8767 12.651 21.5531 12.38 21.17C12.3667 21.157 12.3561 21.1414 12.3489 21.1242C12.3417 21.1071 12.338 21.0886 12.338 21.07C12.338 21.0514 12.3417 21.0329 12.3489 21.0158C12.3561 20.9986 12.3667 20.983 12.38 20.97C12.393 20.9567 12.4086 20.9461 12.4258 20.9389C12.4429 20.9317 12.4614 20.928 12.48 20.928C12.4986 20.928 12.5171 20.9317 12.5342 20.9389C12.5514 20.9461 12.567 20.9567 12.58 20.97C13.0848 21.6642 13.843 22.1313 14.69 22.27C15.0217 22.245 15.3426 22.1413 15.6261 21.9674C15.9096 21.7934 16.1475 21.5544 16.32 21.27L16.46 21.08L16.56 21.29C16.56 21.29 16.93 22.05 17.56 22.09C18.19 22.13 18.61 21.68 19.17 20.81C19.183 20.7967 19.1986 20.7861 19.2158 20.7789C19.2329 20.7717 19.2514 20.768 19.27 20.768C19.2886 20.768 19.3071 20.7717 19.3242 20.7789C19.3414 20.7861 19.357 20.7967 19.37 20.81C19.4023 20.8306 19.4255 20.8629 19.4348 20.9C19.4441 20.9372 19.4388 20.9766 19.42 21.01C18.78 22.01 18.15 22.45 17.54 22.41C17.308 22.3763 17.0867 22.2904 16.8927 22.1587C16.6987 22.0271 16.5371 21.8531 16.42 21.65C16.2233 21.9245 15.9676 22.1514 15.6717 22.3141C15.3758 22.4767 15.0471 22.571 14.71 22.59Z" fill="black"/>
        <path d="M26.24 18.92C24.4445 20.5437 22.7512 22.277 21.17 24.11C19.5986 25.9361 17.8238 27.5768 15.88 29C15.66 28.47 14.26 27.49 14.26 27.49C14.26 27.49 11.13 25.35 9.08 23.67C7.97414 22.7373 6.9287 21.7353 5.95 20.67L3.95 20.56C6.84018 24.7655 11.0702 27.8676 15.95 29.36C16.81 29.22 19.22 27.5 21.02 26.1C23.1389 24.2819 25.124 22.3134 26.96 20.21C27.4625 19.621 27.8493 18.9425 28.1 18.21C27 18.6 26.24 18.92 26.24 18.92Z" fill="#F06351"/>
        </g>
        <defs>
        <clipPath id="clip0">
        <rect width="33.32" height="37.61" fill="white"/>
        </clipPath>
        </defs>
    </symbol>
    <symbol width="62" height="52" viewBox="0 0 62 52" fill="none" id="logo-tablet">
        <g clip-path="url(#clip0)">
        <path d="M51.5819 20.854C50.0969 17.265 47.7053 14.1312 44.6456 11.7649C41.5858 9.39869 37.9646 7.88262 34.143 7.36781C30.3214 6.85301 26.4328 7.35745 22.8646 8.83086C19.2965 10.3043 16.1735 12.6952 13.8068 15.7654C11.4402 18.8355 9.9125 22.4777 9.37609 26.329C8.83968 30.1802 9.31325 34.106 10.7496 37.7151C12.186 41.3242 14.535 44.4906 17.5625 46.8987C20.59 49.3068 24.1903 50.8726 28.0046 51.4399C27.505 49.6238 26.9967 47.6166 26.5488 45.4878C27.8519 46.3405 29.2235 47.0816 30.6492 47.7035V47.7035C30.6492 47.7035 30.7526 49.5804 30.8904 51.6745C32.4308 51.7013 33.9698 51.5644 35.4818 51.2661C35.4427 51.0477 35.4427 50.8241 35.4818 50.6057C35.7316 48.9808 36.4208 46.0526 36.5586 44.167C37.552 43.2297 38.3948 42.1421 39.0567 40.9434V40.9434L39.005 41.3257C38.5313 45.0273 37.5406 48.9808 36.9376 50.0757C36.7424 50.4381 36.5021 50.7739 36.2226 51.0749C39.3408 50.3371 42.2626 48.924 44.7855 46.9336C47.3083 44.9433 49.3718 42.4233 50.8329 39.5484C52.2941 36.6735 53.1179 33.5124 53.2472 30.2843C53.3765 27.0563 52.8083 23.8385 51.5819 20.854V20.854ZM50.3156 24.1472C49.9366 24.5208 49.1527 24.7728 49.0235 23.6432C48.8942 22.5136 48.8598 21.7229 48.8598 21.7229C48.8598 21.7229 47.1972 18.7425 46.577 18.7078C45.9568 18.673 41.5549 21.7229 40.3919 23.0524C39.3841 24.1733 39.1859 24.0951 39.1859 26.0675C39.1859 27.5534 39.3755 33.1666 39.2721 37.459L32.2514 39.3446C30.0448 39.9834 27.8007 40.4825 25.5323 40.8391L24.6709 35.7733H24.5503L22.3364 24.3297C22.3364 24.3297 19.0543 23.0784 17.8483 22.7396C17.2821 22.4897 16.6568 22.4084 16.0462 22.5054C15.4356 22.6024 14.8653 22.8736 14.4026 23.287C13.9306 23.7039 13.5531 24.2185 13.296 24.7958C13.0388 25.373 12.908 25.9994 12.9124 26.6323C13.0945 27.0362 13.2331 27.4585 13.3258 27.8922C13.3689 28.3093 12.2921 28.2659 11.603 28.2659C10.9138 28.2659 10.8105 27.0146 11.3532 25.5462C11.7766 24.417 12.3013 23.3292 12.921 22.2964C13.387 21.3738 13.9881 20.5273 14.7041 19.7852C14.7041 19.7852 14.8247 19.4898 15.7809 19.5767C16.7371 19.6636 22.0521 19.9503 22.0521 19.9503L22.0952 17.9779C27.8722 17.1733 33.6987 16.7842 39.5305 16.8135C39.5305 17.3436 39.5305 17.8736 39.5305 18.4037C41.7394 17.3869 44.118 16.7974 46.5425 16.6658C46.6723 16.6625 46.8008 16.6917 46.9166 16.7509C47.0323 16.81 47.1317 16.8972 47.2058 17.0047C47.4987 17.3783 49.2819 19.6115 49.4886 19.933C50.0677 20.7677 50.5942 21.6383 51.065 22.5397C50.9037 23.1104 50.6505 23.6505 50.3156 24.1385V24.1472Z" fill="#FDC305"/>
        <path d="M48.6363 18.8294C49.0411 19.3508 49.3943 19.8113 49.4977 19.9503C50.0768 20.7851 50.6033 21.6557 51.0741 22.5571C50.9102 23.1091 50.6601 23.6312 50.3333 24.1038C49.9543 24.4774 49.1704 24.7294 49.0411 23.5998C48.9119 22.4702 48.8602 21.7229 48.8602 21.7229C48.8602 21.7229 47.1977 18.7425 46.5775 18.7078C45.9572 18.673 41.5553 21.7229 40.3924 23.0524C39.3845 24.1733 39.1864 24.0951 39.1864 26.0675C39.1864 27.3709 39.3328 31.8458 39.2984 35.8254C40.8576 35.9992 43.149 36.4337 43.8381 37.459C43.8381 37.459 43.5883 31.2202 50.5659 34.4873C50.5659 34.4873 50.8071 25.9806 60.4378 28.1616C57.1639 24.2844 53.1505 21.1107 48.6363 18.8294V18.8294Z" fill="#F06351"/>
        <path d="M39.5654 16.8135C39.6005 11.9987 39.1968 7.1907 38.3594 2.45034C38.3594 2.45034 38.2302 1.32075 37.61 2.2418C37.0982 3.34291 36.7499 4.51402 36.5763 5.71747C32.8938 5.47914 29.1975 5.57802 25.5328 6.0129C24.8264 3.62338 23.6204 2.53724 23.0432 2.82398C22.4661 3.11072 22.3972 5.67402 22.3972 5.67402L22.1129 17.9779C27.8956 17.1725 33.7279 16.7834 39.5654 16.8135V16.8135Z" fill="#F06351"/>
        <path d="M39.0651 40.9434C39.1771 40.0136 39.2374 38.7798 39.2719 37.4156L32.2516 39.3011C30.0459 39.9546 27.8019 40.4682 25.5327 40.8391L26.4889 45.1837C26.4889 45.2793 26.4889 45.3748 26.5492 45.4704C27.8522 46.3231 29.2238 47.0642 30.6494 47.6861C32.7328 46.6815 34.7171 45.4799 36.5757 44.0975V44.1497C37.5647 43.217 38.4044 42.1354 39.0651 40.9434V40.9434Z" fill="#E55645"/>
        <path d="M27.5657 14.0938C27.5227 14.0069 28.4271 14.6847 28.7803 14.8932C29.1334 15.1018 29.3057 15.2582 29.3057 15.4059C29.3057 15.5536 29.0818 15.7013 28.7717 15.7013C28.4616 15.7013 27.9792 15.5971 27.9103 15.4754C27.8414 15.3538 28.4271 15.4754 28.72 15.4754H28.9698C28.4395 15.084 27.9667 14.6189 27.5657 14.0938Z" fill="black"/>
        <path d="M34.0264 14.1894C34.0264 14.1894 33.165 15.3016 33.0875 15.3538C33.0099 15.4059 32.941 15.6492 33.2511 15.6057C33.6071 15.5521 33.9585 15.4708 34.302 15.3624C34.3968 15.3103 34.3623 15.1887 34.1986 15.206C34.035 15.2234 33.6129 15.2495 33.3373 15.3016L34.0694 14.1981C34.0694 14.1981 34.0953 14.0938 34.0264 14.1894Z" fill="black"/>
        <path d="M31.3215 19.4985C31.7208 19.321 32.0508 19.0156 32.2604 18.6296C32.5016 18.0561 32.2604 17.8389 31.8814 17.7607C31.36 17.6647 30.8218 17.7702 30.374 18.0561C30.038 18.3776 30.0811 18.6904 30.374 18.925C30.6649 19.1552 30.9832 19.3478 31.3215 19.4985V19.4985Z" fill="black"/>
        <path d="M31.0113 20.5933C30.9124 20.7904 30.778 20.9672 30.615 21.1147C30.3697 21.3138 30.0682 21.4294 29.7537 21.4449C29.2794 21.4918 28.8052 21.3552 28.4271 21.0625C28.2535 20.9601 28.099 20.8278 27.9706 20.6715C27.8844 20.5769 27.7785 20.5027 27.6605 20.4543C27.6605 20.4543 28.3065 24.0255 29.8743 24.599C31.442 25.1725 31.7348 23.9387 31.7779 23.6085C31.8304 22.6195 31.5841 21.6379 31.0716 20.7932C31.0716 20.5325 31.0544 20.7063 31.0113 20.5933Z" fill="#F06351"/>
        <path d="M29.5469 21.5839C29.1438 21.5254 28.7566 21.3852 28.4087 21.1716C28.0608 20.9581 27.7594 20.6756 27.5226 20.3413C27.5015 20.3174 27.4897 20.2865 27.4897 20.2544C27.4897 20.2224 27.5015 20.1915 27.5226 20.1676C27.5339 20.156 27.5473 20.1468 27.5621 20.1405C27.5769 20.1343 27.5927 20.131 27.6088 20.131C27.6248 20.131 27.6407 20.1343 27.6555 20.1405C27.6703 20.1468 27.6837 20.156 27.6949 20.1676C27.9081 20.4692 28.1785 20.7252 28.4905 20.9206C28.8025 21.116 29.1499 21.2469 29.5124 21.3058C29.7993 21.2841 30.0769 21.194 30.3225 21.0429C30.5681 20.8919 30.7746 20.6842 30.9251 20.4369L31.0457 20.2718L31.1319 20.463C31.1319 20.463 31.4592 21.1234 31.9932 21.1581C32.5273 21.1929 32.9063 20.7932 33.3973 20.0372C33.4156 20.0096 33.444 19.9904 33.4763 19.9838C33.5086 19.9773 33.5422 19.984 33.5696 20.0025C33.597 20.0209 33.616 20.0496 33.6225 20.0822C33.6289 20.1147 33.6223 20.1486 33.604 20.1762C33.0298 21.0278 32.4871 21.4362 31.976 21.4014C31.7785 21.375 31.5893 21.3043 31.4224 21.1946C31.2554 21.0848 31.115 20.9388 31.0113 20.7671C30.8427 21.0045 30.6238 21.201 30.3705 21.3423C30.1172 21.4836 29.8358 21.5661 29.5469 21.5839Z" fill="black"/>
        <path d="M31.2353 33.2795C33.0192 33.2795 34.4655 31.8207 34.4655 30.0211C34.4655 28.2215 33.0192 26.7626 31.2353 26.7626C29.4513 26.7626 28.0051 28.2215 28.0051 30.0211C28.0051 31.8207 29.4513 33.2795 31.2353 33.2795Z" fill="#FDC305"/>
        <path d="M35.5163 27.3709L32.8202 28.5092L33.8108 23.6172L27.3504 32.0978L30.0465 30.9595L29.0559 35.8602L35.5163 27.3709ZM29.1507 30.6988L32.734 25.998L32.0363 29.4737L33.7591 28.7611L30.1499 33.4707L30.8476 29.995L29.1507 30.6988Z" fill="#111111"/>
        <path d="M27.9447 29.4215C28.4775 29.4215 28.9095 28.9858 28.9095 28.4483C28.9095 27.9109 28.4775 27.4751 27.9447 27.4751C27.4119 27.4751 26.9799 27.9109 26.9799 28.4483C26.9799 28.9858 27.4119 29.4215 27.9447 29.4215Z" fill="#111111"/>
        <path d="M33.5612 32.9493C33.9371 32.9493 34.2417 32.642 34.2417 32.2629C34.2417 31.8838 33.9371 31.5764 33.5612 31.5764C33.1854 31.5764 32.8807 31.8838 32.8807 32.2629C32.8807 32.642 33.1854 32.9493 33.5612 32.9493Z" fill="#111111"/>
        <path d="M34.3882 31.0638C34.5547 31.0638 34.6897 30.9276 34.6897 30.7597C34.6897 30.5917 34.5547 30.4555 34.3882 30.4555C34.2217 30.4555 34.0867 30.5917 34.0867 30.7597C34.0867 30.9276 34.2217 31.0638 34.3882 31.0638Z" fill="#111111"/>
        <path d="M39.5224 18.3863C37.9674 19.8002 36.5029 21.3123 35.1377 22.9133C33.7778 24.5028 32.2433 25.9312 30.5635 27.171C30.374 26.7105 29.1594 25.8503 29.1594 25.8503C29.1594 25.8503 26.4545 23.9821 24.6799 22.5136C23.7207 21.7077 22.8169 20.8368 21.9751 19.9069L20.2522 19.8113C22.7392 23.4757 26.3826 26.183 30.5893 27.4925C31.3302 27.3709 33.4148 25.8677 34.974 24.6425C36.8187 23.0601 38.5461 21.3437 40.1426 19.5072C40.5717 18.9928 40.9044 18.4039 41.1246 17.7693C40.1426 18.0995 39.5224 18.3863 39.5224 18.3863Z" fill="#F06351"/>
        <path d="M22.3368 24.3297C22.3368 24.3297 19.0548 23.0784 17.8488 22.7395C17.2825 22.4897 16.6572 22.4084 16.0467 22.5054C15.4361 22.6024 14.8658 22.8736 14.4031 23.287C13.931 23.7039 13.5536 24.2185 13.2964 24.7958C13.0393 25.373 12.9084 25.9994 12.9128 26.6323C13.0949 27.0362 13.2335 27.4585 13.3263 27.8922C13.3694 28.3093 12.2926 28.2659 11.6034 28.2659C10.9143 28.2659 10.8109 27.0146 11.3536 25.5462C11.777 24.417 12.3018 23.3292 12.9214 22.2964C8.22664 24.7641 0 30.4642 0 30.4642C2.35316 30.3211 4.71429 30.3909 7.0551 30.6728C11.5776 31.1333 11.3622 34.7306 11.3622 34.7306C12.9529 34.2883 14.574 33.9659 16.2121 33.7661C18.0383 33.6445 18.1675 35.6082 18.1675 35.6082L18.6241 38.9622C19.3173 38.2057 20.0819 37.5189 20.9069 36.9116C21.9703 36.0529 23.3243 35.6476 24.6799 35.782V35.782L22.3368 24.3297Z" fill="#F06351"/>
        </g>
        <defs>
        <clipPath id="clip0">
        <rect width="174" height="51.6832" fill="white"/>
        </clipPath>
        </defs>
    </symbol>
    <symbol width="101" height="18" viewBox="0 0 101 18" fill="none" id="logo-text">
        <g clip-path="url(#clip0)">
        <path d="M1.26449 16.5385C0.36955 15.2762 -0.0747041 13.7627 1.02073e-05 12.2308V5.84615C-0.108365 4.29774 0.308071 2.75746 1.18546 1.46154C2.05478 0.461538 3.39829 0 5.37403 0C7.34978 0 8.61425 0.461538 9.40455 1.30769C10.2626 2.37941 10.6846 3.72136 10.59 5.07692V6.61539H6.71754V4.84615C6.74881 4.32289 6.66808 3.799 6.48045 3.30769C6.38016 3.10938 6.2212 2.9448 6.02403 2.83513C5.82686 2.72547 5.60049 2.67572 5.37403 2.69231C4.82082 2.69231 4.42568 2.84615 4.26762 3.23077C4.08883 3.77733 4.00862 4.34988 4.03053 4.92308V13.1538C3.98879 13.71 4.0978 14.267 4.34665 14.7692C4.5047 15.1538 4.89985 15.3077 5.45306 15.3077C6.00627 15.3077 6.32239 15.1538 6.48045 14.7692C6.66013 14.2494 6.74049 13.7019 6.71754 13.1538V11.3077H10.59V12.8462C10.6704 14.2238 10.2508 15.5852 9.40455 16.6923C8.61425 17.6154 7.27075 18.0769 5.37403 18.0769C3.47732 18 2.05478 17.5385 1.26449 16.5385Z" fill="#111111"/>
        <path d="M15.2527 0.23077H19.7574L23.0767 17.7692H19.4413L18.8091 14.0769H16.2011L15.5689 17.7692H11.8545L15.2527 0.23077ZM18.493 11.7692L17.5446 4.92308L16.5963 11.7692H18.493Z" fill="#111111"/>
        <path d="M25.8427 3.15385H23.1557V0.23077H32.5602V3.07692H29.8732V17.7692H25.8427V3.15385Z" fill="#111111"/>
        <path d="M39.752 0.23077H46.7066V2.07692H42.2019V7.84615H45.8372V9.61539H42.2019V16.0769H46.7066V17.8462H39.6729V0.23077H39.752Z" fill="#111111"/>
        <path d="M48.7613 0.23077H50.5L55.6369 11.8462V0.23077H57.6917V17.7692H56.1111L50.8951 5.76923V17.7692H48.7613V0.23077Z" fill="#111111"/>
        <path d="M60.0626 0.23077H67.0172V2.07692H62.5125V7.84615H66.1479V9.61539H62.5125V16.0769H67.0172V17.8462H60.0626V0.23077Z" fill="#111111"/>
        <path d="M69.072 0.230769H72.7074C74.1375 0.134616 75.5587 0.514352 76.7379 1.30769C77.6072 2 78.0024 3.23077 78.0024 4.84615C78.0024 7.07692 77.2911 8.46154 75.7895 8.92308L78.3185 17.6923H75.8686L73.4977 9.46154H71.5219V17.6923H68.993V0.230769H69.072ZM72.5493 7.76923C73.364 7.83458 74.1761 7.61652 74.8412 7.15384C75.3154 6.76923 75.5524 6 75.5524 4.84615C75.5743 4.27296 75.4941 3.7004 75.3154 3.15385C75.1375 2.76165 74.832 2.4373 74.446 2.23077C73.9017 1.98934 73.3042 1.8836 72.7074 1.92308H71.601V7.69231H72.5493V7.76923Z" fill="#111111"/>
        <path d="M81.1635 16.4615C80.342 15.1166 79.9564 13.5617 80.0571 12V6.15384C80.0376 5.03911 80.1705 3.9268 80.4522 2.84615C80.7167 2.03863 81.2437 1.33668 81.9538 0.846152C82.8362 0.337748 83.8542 0.0967294 84.8779 0.153844C86.5375 0.153844 87.723 0.53846 88.4343 1.38461C89.2524 2.50191 89.6438 3.86237 89.5407 5.23077V5.84615H87.1698V5.30769C87.1734 4.66346 87.1205 4.0201 87.0117 3.38461C86.9451 2.98303 86.7178 2.62348 86.3795 2.38461C85.9353 2.10082 85.4081 1.96579 84.8779 2C84.3113 1.96466 83.7504 2.12843 83.2973 2.46154C83.1114 2.61401 82.9595 2.80181 82.8508 3.01344C82.742 3.22507 82.6789 3.45608 82.6651 3.69231C82.5609 4.37999 82.5081 5.07411 82.507 5.76923V12.3077C82.4488 13.3038 82.6105 14.3006 82.9812 15.2308C83.2973 15.8462 83.9296 16.0769 84.8779 16.0769C85.2524 16.1223 85.6322 16.0589 85.9697 15.8947C86.3072 15.7304 86.5873 15.4727 86.7746 15.1538C87.1922 14.1811 87.3812 13.1299 87.3278 12.0769V10.8462H85.036V9.07692H89.6197V17.7692H88.0391L87.802 15.7692C87.5948 16.4395 87.1634 17.0231 86.5763 17.4273C85.9892 17.8315 85.2801 18.0331 84.5618 18C83.9088 18.0374 83.2565 17.9164 82.6633 17.6479C82.0702 17.3794 81.5549 16.9717 81.1635 16.4615Z" fill="#111111"/>
        <path d="M94.6776 11.6154L90.8052 0.30769H93.1761L95.9421 8.76923L98.6291 0.30769H101L97.1275 11.6154V17.7692H94.7566V11.6154H94.6776Z" fill="#111111"/>
        </g>
        <defs>
        <clipPath id="clip0">
        <rect width="101" height="18" fill="white"/>
        </clipPath>
        </defs>
    </symbol>
    <symbol width="67" height="28" viewBox="0 0 67 28" fill="none" id="gain_weight">
        <path d="M61.55 2.89997C62.1272 1.98151 62.8944 1.19727 63.8 0.599973C64.3 0.249973 64.6 0.249973 64.9 0.899973C65.3 1.84997 65.65 2.84997 65.35 3.89997C65.2954 4.07806 65.2851 4.26677 65.3199 4.44974C65.3548 4.63272 65.4338 4.80442 65.55 4.94997C65.85 5.34997 66.1 5.74997 66.35 6.09997C66.6902 6.53186 66.9109 7.04563 66.9899 7.58974C67.0689 8.13385 67.0034 8.68917 66.8 9.19997C66.6164 9.69588 66.5817 10.2346 66.7 10.75C66.7999 11.245 66.7999 11.755 66.7 12.25C66.6596 12.6207 66.5095 12.9709 66.2691 13.2559C66.0286 13.5409 65.7086 13.7478 65.35 13.85C64.7104 13.9717 64.1396 14.3284 63.75 14.85C63.7028 14.9268 63.6365 14.9901 63.5577 15.0339C63.4789 15.0777 63.3901 15.1005 63.3 15.1C62.7 15.2 61.2 13.85 61.2 13.25V12.95C61.25 11.15 61.15 11 59.5 10.25C59.1546 10.1282 58.8452 9.92192 58.6 9.64997C58.3 9.24997 57.9 9.29997 57.45 9.44997C57 9.59997 56.75 9.89997 56.8 10.4C56.9508 11.6104 57.0009 12.8313 56.95 14.05C56.9533 14.1891 56.9875 14.3257 57.05 14.45C58.6 16.7 59.2 19.35 59.95 21.9C60.55 23.85 61.65 24.9 63.65 25.05C63.97 25.0755 64.2876 25.1257 64.6 25.2C65.0109 25.266 65.3926 25.4538 65.6956 25.739C65.9987 26.0242 66.2092 26.3938 66.3 26.8C66.65 27.85 66.45 28.1 65.4 28.1H62.15C61.7292 28.1213 61.3167 27.9778 61 27.7C60.4939 27.2729 59.9191 26.9348 59.3 26.7C58.6155 26.4473 58.0231 25.9943 57.6 25.4C57.0143 24.5817 56.3439 23.8275 55.6 23.15C54.2 21.7 52.7 20.3 51.4 18.8C50.4103 17.7779 49.8395 16.4221 49.8 15C49.8 14.55 49.7 14.35 49.2 14.55C49.0503 14.645 48.8773 14.6969 48.7 14.7C47.3 14.7 46.6 15.55 46.1 16.8C45.65 17.85 45.05 18.85 44.5 19.9C44.1881 20.5572 44.0178 21.2727 44 22C44 23.2 44.3 23.6 45.4 24C46.1 24.25 46.75 24.5 47.1 25.2C47.5 26 47.4 26.2 46.55 26.25H43.15C42.954 26.2694 42.7568 26.2267 42.5864 26.1281C42.4159 26.0294 42.2807 25.8796 42.2 25.7L41.3 24.2C41.0347 23.8086 40.8648 23.3605 40.8041 22.8916C40.7433 22.4227 40.7932 21.9461 40.95 21.5C41.1664 20.6317 41.1835 19.7258 41 18.85C40.8739 18.24 40.8848 17.6097 41.0318 17.0045C41.1788 16.3993 41.4582 15.8342 41.85 15.35C42.15 15 42.15 14.85 41.65 14.75C39.6054 14.3157 37.6233 13.627 35.75 12.7C35.7367 12.7 35.724 12.6947 35.7146 12.6853C35.7052 12.676 35.7 12.6632 35.7 12.65C34.1 12.05 33.8 12.15 33.35 13.8C32.95 15.2 32.55 16.6 32.25 18.05C31.9 19.65 32.3 21.15 32.8 22.65C33 23.25 33.6 23.2 34.05 23.35C35.05 23.65 35.9 24.05 36.3 25.1C36.65 25.9 36.6 26 35.75 26C34.9 26 34.05 25.95 33.15 26C32.3905 26.0137 31.6493 25.7667 31.05 25.3C28.65 23.7 27.95 21.25 27.75 18.6C27.65 16.95 26.75 15.65 25.7 14.4C25.5 14.15 25.3 14.05 25 14.25C23.9267 14.8418 22.8062 15.3435 21.65 15.75C19.2371 16.602 17.1198 18.1292 15.55 20.15C14.9638 20.8875 14.5842 21.7675 14.45 22.7C14.3 23.6 14.55 24 15.45 24.25C16.35 24.5 16.8 25 16.9 25.95C16.95 26.35 16.8 26.55 16.4 26.55H12.35C12.2174 26.5406 12.0891 26.4993 11.9759 26.4297C11.8628 26.36 11.7681 26.2641 11.7 26.15C11.0719 25.3724 10.7358 24.3995 10.75 23.4C10.7237 21.6724 10.8745 19.9468 11.2 18.25C11.2667 17.7418 11.4564 17.2576 11.7527 16.8394C12.0489 16.4212 12.4427 16.0815 12.9 15.85C15.85 14.45 17.4 11.8 18.8 9.04997C19.1 8.49997 18.85 8.39997 18.35 8.44997C16.9506 8.64424 15.6248 9.19523 14.5 10.05C13.0271 11.1244 11.6396 12.3113 10.35 13.6C8.9748 14.9968 7.15133 15.8643 5.19998 16.05C1.54998 16.25 -0.150021 14.2 -2.12286e-05 10.9C0.03351 9.77477 0.457802 8.69636 1.19998 7.84997C1.45799 7.51547 1.80985 7.26546 2.21061 7.13188C2.61138 6.99829 3.04287 6.98718 3.44998 7.09997C4.19998 7.29997 4.39998 7.69997 4.09998 8.44997C3.94998 8.74997 3.74998 8.99997 3.59998 9.29997C3.38428 9.60645 3.21574 9.94353 3.09998 10.3C2.54998 11.8 3.29998 12.85 4.84998 13C6.49998 13.15 7.84998 12.45 9.09998 11.45C10.6059 10.2441 11.9503 8.84929 13.1 7.29997C13.9596 6.16868 15.042 5.22562 16.2804 4.52904C17.5188 3.83245 18.8868 3.39714 20.3 3.24997C21.45 3.09997 22.45 2.59997 23.55 2.29997C25.6072 1.67278 27.7495 1.36915 29.9 1.39997C30.896 1.44145 31.8883 1.25327 32.8 0.849973C35.25 -0.150027 37.8 -0.150028 40.35 0.349973C42.35 0.749973 44.35 1.24997 46.3 1.74997C47.4605 1.96621 48.6537 1.93212 49.8 1.64997C51.9943 1.09374 54.2389 0.758734 56.5 0.649973C57.9812 0.577906 59.4576 0.869742 60.8 1.49997C61.8 1.94997 61.8 1.94997 61.55 2.89997Z" fill="black"/>
    </symbol>
    <symbol width="36" height="50" viewBox="0 0 36 50" fill="none" id="lose_weight">
        <path d="M28.2034 0H28.008C27.6778 0.187081 27.415 0.473924 27.2571 0.819588C26.968 1.37738 26.7453 1.96735 26.5937 2.57732C26.5612 2.76073 26.4688 2.92811 26.331 3.05315C26.1932 3.17818 26.0179 3.25377 25.8326 3.26804C25.2658 3.36597 24.7288 3.59243 24.2626 3.93012C23.7965 4.26781 23.4135 4.7078 23.1429 5.21649C22.7708 5.87697 22.4526 6.5665 22.1914 7.27835C21.4611 9.17526 20.9006 11.134 20.2114 13.0464C19.8874 13.9175 19.872 13.9175 18.8949 13.9175C17.7274 13.9175 17.8097 13.7371 17.7943 15.0258C17.7943 15.433 17.9177 15.6392 18.3497 15.6186C18.4834 15.6186 18.684 15.5515 18.7354 15.7268C18.7869 15.9021 18.612 15.9794 18.5091 16.0825C17.8994 16.7029 17.1276 17.1388 16.2823 17.3402C15.3051 17.6031 14.3074 17.8093 13.356 18.1289C10.9131 18.9485 8.65543 20.0928 6.89657 22.0309C5.86814 23.2347 5.04455 24.6001 4.45886 26.0722C2.57143 30.5258 1.656 35.2165 0.946286 39.9536C0.612 42.1753 0.375429 44.4072 0.195429 46.6546C0.102857 47.7577 0 48.8763 0 50H17.1411C17.1696 49.7731 17.1283 49.5429 17.0229 49.3402C16.858 48.9289 16.5901 48.5672 16.2451 48.29C15.9 48.0128 15.4895 47.8295 15.0531 47.7577C14.6931 47.6753 14.652 47.567 14.8731 47.2835C15.2338 46.801 15.5103 46.2607 15.6909 45.6856C16.5291 43.2062 16.8531 40.6186 17.2594 38.0567C17.4889 36.0999 18.0894 34.2051 19.0286 32.4742C19.7611 31.2002 20.7382 30.0842 21.9034 29.1907C22.3303 28.866 22.3457 28.866 22.4177 29.4175C22.4691 29.7835 22.4794 30.1598 22.5051 30.5309C22.6595 32.9662 22.6285 35.4097 22.4126 37.8402C22.2184 39.7242 22.1926 41.6217 22.3354 43.5103C22.5399 45.7029 22.9304 47.8739 23.5029 50H30.3429C30.2536 49.442 29.9973 48.9243 29.6078 48.5156C29.2184 48.1069 28.7143 47.8264 28.1623 47.7113C27.5177 47.6087 26.8587 47.6438 26.2286 47.8144C25.92 47.8866 25.7914 47.8144 25.7657 47.4794C25.5529 44.7505 25.7261 42.0051 26.28 39.3247C26.966 36.2304 27.4912 33.1025 27.8537 29.9536C27.9887 28.6819 28.3881 27.4528 29.0263 26.3454C29.6383 25.2526 30.1731 24.1186 30.7749 23.0206C31.0138 22.6214 31.1575 22.1723 31.195 21.7083C31.2325 21.2443 31.1626 20.7779 30.9909 20.3454C30.852 19.9794 30.7183 19.6082 30.5486 19.2577C30.0343 18.2526 29.52 17.2577 29.0469 16.2423C28.7949 15.7268 28.8514 15.6649 29.412 15.6495C30.2503 15.6495 30.2503 15.6495 30.2657 14.8041C30.2657 14.6907 30.2657 14.5773 30.2657 14.4639C30.2657 14.1082 30.132 13.9124 29.7514 13.9485C29.4943 13.9485 29.2371 13.9485 28.9697 13.9485C28.6149 13.9485 28.512 13.799 28.5994 13.433C28.7729 12.838 29.1142 12.306 29.5823 11.9009C30.0503 11.4958 30.6252 11.2349 31.2377 11.1495C32.3772 11.0505 33.5251 11.1252 34.6423 11.3711C34.7712 11.4118 34.9109 11.4001 35.0312 11.3383C35.1515 11.2766 35.2427 11.1699 35.2851 11.0412C35.4909 10.5258 35.7171 10.0103 35.9486 9.49484C36.001 9.40339 36.0242 9.29801 36.015 9.19293C36.0058 9.08785 35.9647 8.98812 35.8971 8.90722C34.2514 6.81443 32.4669 4.86082 30.0343 3.60825C29.9168 3.55754 29.8138 3.47814 29.7347 3.3773C29.6557 3.27646 29.6031 3.15738 29.5817 3.03093C29.444 2.29408 29.225 1.57487 28.9286 0.886598C28.7895 0.519904 28.5349 0.20865 28.2034 0V0Z" fill="black"/>
    </symbol>
    <symbol width="13" height="20" viewBox="0 0 13 20" fill="none" id="icon_fb">
        <path d="M11.5 0.833252H8.75001C7.53443 0.833252 6.36864 1.30674 5.5091 2.14957C4.64956 2.99239 4.16667 4.1355 4.16667 5.32743V8.02394H1.41667V11.6193H4.16667V18.81H7.83334V11.6193H10.5833L11.5 8.02394H7.83334V5.32743C7.83334 5.08905 7.92992 4.86042 8.10182 4.69186C8.27373 4.52329 8.50689 4.4286 8.75001 4.4286H11.5V0.833252Z" stroke="#666666" stroke-width="1.1" stroke-linecap="round" stroke-linejoin="round"/>
    </symbol>
    <symbol width="16" height="16" viewBox="0 0 16 16" fill="none" id="icon_ig">
        <path d="M7.98438 0.0625C9.31771 0.0625 10.4062 0.078125 11.25 0.109375C11.9688 0.140625 12.6094 0.265625 13.1719 0.484375C13.7135 0.692708 14.1823 0.994792 14.5781 1.39062C14.974 1.78646 15.276 2.25521 15.4844 2.79687C15.7031 3.35937 15.8281 4 15.8594 4.71875C15.8906 5.5625 15.9062 6.65104 15.9062 7.98437C15.9062 9.31771 15.8906 10.4062 15.8594 11.25C15.8281 11.9687 15.7031 12.6094 15.4844 13.1719C15.276 13.7135 14.974 14.1823 14.5781 14.5781C14.1823 14.974 13.7135 15.276 13.1719 15.4844C12.6094 15.7031 11.9688 15.8281 11.25 15.8594C10.4062 15.8906 9.31771 15.9062 7.98438 15.9062C6.65104 15.9062 5.5625 15.8906 4.71875 15.8594C4 15.8281 3.35938 15.7031 2.79688 15.4844C2.25521 15.276 1.78646 14.974 1.39062 14.5781C0.994792 14.1823 0.692708 13.7135 0.484375 13.1719C0.265625 12.6094 0.140625 11.9687 0.109375 11.25C0.078125 10.4062 0.0625 9.31771 0.0625 7.98437C0.0625 6.65104 0.078125 5.5625 0.109375 4.71875C0.140625 4 0.265625 3.35937 0.484375 2.79687C0.692708 2.25521 0.994792 1.78646 1.39062 1.39062C1.78646 0.994792 2.25521 0.692708 2.79688 0.484375C3.35938 0.265625 4 0.140625 4.71875 0.109375C5.5625 0.078125 6.65104 0.0625 7.98438 0.0625ZM7.98438 1.09375C6.59896 1.09375 5.46875 1.10937 4.59375 1.14062C4.03125 1.16146 3.51042 1.26042 3.03125 1.4375C2.28125 1.75 1.75 2.28125 1.4375 3.03125C1.26042 3.51042 1.16146 4.03125 1.14062 4.59375C1.10938 5.46875 1.09375 6.59896 1.09375 7.98437C1.09375 9.36979 1.10938 10.5 1.14062 11.375C1.16146 11.9375 1.26042 12.4583 1.4375 12.9375C1.75 13.6875 2.28125 14.2187 3.03125 14.5312C3.51042 14.7083 4.03125 14.8073 4.59375 14.8281C5.46875 14.8594 6.59896 14.875 7.98438 14.875C9.36979 14.875 10.5 14.8594 11.375 14.8281C11.9375 14.8073 12.4583 14.7083 12.9375 14.5312C13.6875 14.2187 14.2188 13.6875 14.5312 12.9375C14.7083 12.4583 14.8073 11.9375 14.8281 11.375C14.8594 10.5 14.875 9.36979 14.875 7.98437C14.875 6.59896 14.8594 5.46875 14.8281 4.59375C14.8073 4.03125 14.7083 3.51042 14.5312 3.03125C14.2188 2.28125 13.6875 1.75 12.9375 1.4375C12.4583 1.26042 11.9375 1.16146 11.375 1.14062C10.5 1.10937 9.36979 1.09375 7.98438 1.09375ZM7.98438 11.1562C8.85938 11.1562 9.60677 10.8464 10.2266 10.2266C10.8464 9.60677 11.1562 8.85937 11.1562 7.98437C11.1562 7.10937 10.8464 6.36198 10.2266 5.74219C9.60677 5.1224 8.85938 4.8125 7.98438 4.8125C7.10938 4.8125 6.36198 5.1224 5.74219 5.74219C5.1224 6.36198 4.8125 7.10937 4.8125 7.98437C4.8125 8.85937 5.1224 9.60677 5.74219 10.2266C6.36198 10.8464 7.10938 11.1562 7.98438 11.1562ZM7.98438 3.92187C9.10938 3.92187 10.0677 4.31771 10.8594 5.10937C11.651 5.90104 12.0469 6.85937 12.0469 7.98437C12.0469 9.10937 11.651 10.0677 10.8594 10.8594C10.0677 11.651 9.10938 12.0469 7.98438 12.0469C6.85938 12.0469 5.90104 11.651 5.10938 10.8594C4.31771 10.0677 3.92188 9.10937 3.92188 7.98437C3.92188 6.85937 4.31771 5.90104 5.10938 5.10937C5.90104 4.31771 6.85938 3.92187 7.98438 3.92187ZM13.1719 3.76562C13.1719 4.02604 13.0781 4.2474 12.8906 4.42969C12.7031 4.61198 12.474 4.70312 12.2031 4.70312C11.9427 4.70312 11.7214 4.61198 11.5391 4.42969C11.3568 4.2474 11.2656 4.02604 11.2656 3.76562C11.2656 3.49479 11.3568 3.26562 11.5391 3.07812C11.7214 2.89062 11.9427 2.79687 12.2031 2.79687C12.4635 2.79687 12.6901 2.89323 12.8828 3.08594C13.0755 3.27865 13.1719 3.50521 13.1719 3.76562Z" fill="#666666"/>
    </symbol>
    <symbol width="23" height="13" viewBox="0 0 23 13" fill="none" id="icon_vk">
        <path d="M0.0700912 1.99266C0.0700912 1.37082 0.493211 1.03552 1.33945 0.986745L4.60039 1.00503C4.81925 1.00503 4.96515 1.09648 5.03811 1.27938C5.37368 2.19385 5.74938 2.98334 6.16521 3.64785C6.58103 4.31237 7.12453 5.07748 7.79568 5.94317C7.85404 6.05291 7.94888 6.10778 8.08019 6.10778C8.18233 6.10778 8.26257 6.0651 8.32093 5.97975L8.38659 5.77857L8.40848 2.6145C8.40848 2.39503 8.34647 2.24871 8.22245 2.17556C8.09843 2.1024 7.86863 2.04753 7.53305 2.01095C7.27043 1.97437 7.13912 1.84025 7.13912 1.60859C7.13912 1.55981 7.14641 1.52323 7.161 1.49885C7.4674 0.706308 8.34282 0.310037 9.78726 0.310037L11.0129 0.291748C11.5673 0.291748 12.0269 0.407581 12.3916 0.639247C12.7564 0.870912 12.9388 1.2367 12.9388 1.73661V5.88831C13.0409 5.94927 13.1357 5.97975 13.2233 5.97975C13.4421 5.97975 13.6318 5.87002 13.7923 5.65054C15.3973 3.77283 16.2654 2.51696 16.3967 1.88293C16.3967 1.87073 16.4113 1.84025 16.4405 1.79148C16.5426 1.60859 16.7104 1.45008 16.9438 1.31595C17.1773 1.18183 17.3815 1.09039 17.5566 1.04161C17.615 1.01723 17.6806 1.00503 17.7536 1.00503H21.1459L21.3647 1.02332C21.6565 1.02332 21.8827 1.13916 22.0432 1.37082C22.1015 1.44398 22.1416 1.52323 22.1635 1.60859C22.1854 1.69394 22.2 1.77929 22.2073 1.86464C22.2146 1.94999 22.2182 1.99876 22.2182 2.01095V2.13898C22.1161 2.63889 21.8571 3.17233 21.4413 3.7393C21.0255 4.30627 20.4966 4.91897 19.8546 5.57739C19.2126 6.2358 18.8114 6.66865 18.6509 6.87593C18.5196 7.02225 18.4539 7.15637 18.4539 7.2783C18.4539 7.37584 18.5123 7.48558 18.629 7.60751L21.8243 10.9728C21.9994 11.1678 22.0869 11.3812 22.0869 11.6129C22.0869 11.8933 21.9556 12.125 21.693 12.3079C21.4304 12.4908 21.1167 12.5944 20.7519 12.6188L20.3799 12.6371H17.0533C17.0387 12.6371 17.0095 12.6401 16.9657 12.6462C16.9219 12.6523 16.8928 12.6554 16.8782 12.6554C16.5572 12.6554 16.2581 12.5396 15.9809 12.3079C15.8787 12.2103 15.193 11.491 13.9236 10.1497C13.8507 10.0644 13.7485 9.98513 13.6172 9.91197C13.5589 10.1071 13.4823 10.3875 13.3874 10.7533C13.2926 11.1191 13.2233 11.3812 13.1795 11.5397L13.1139 11.8506C12.968 12.2774 12.6616 12.5335 12.1947 12.6188L11.8883 12.6371H9.74349C8.53249 12.6371 7.32514 12.1738 6.12144 11.2471C4.91773 10.3204 3.8344 9.12248 2.87144 7.65323C1.90848 6.18398 1.01117 4.47392 0.179519 2.52306C0.106567 2.36455 0.0700912 2.18775 0.0700912 1.99266ZM13.2233 6.72962C12.9169 6.72962 12.6397 6.65951 12.3916 6.51929C12.1436 6.37907 12.0196 6.18703 12.0196 5.94317V1.73661C12.0196 1.49275 11.9466 1.319 11.8007 1.21536C11.6548 1.11172 11.3995 1.0599 11.0347 1.0599L9.78726 1.09648C9.15988 1.09648 8.68569 1.18793 8.36471 1.37082C9.00668 1.62687 9.32767 2.04143 9.32767 2.6145V5.83344C9.29849 6.13826 9.15258 6.39126 8.88996 6.59245C8.62733 6.79363 8.33552 6.89422 8.01454 6.89422C7.57683 6.89422 7.24125 6.71742 7.0078 6.36383C5.86975 4.92506 5.02351 3.55945 4.46908 2.267L4.27211 1.79148L1.36134 1.77319C1.17166 1.77319 1.06588 1.78233 1.044 1.80062C1.02211 1.81891 1.01117 1.87073 1.01117 1.95608C1.01117 2.06582 1.02576 2.18165 1.05494 2.30358L1.51454 3.32779C2.74013 5.97366 4.07149 8.05865 5.50864 9.58276C6.94579 11.1069 8.35741 11.8689 9.74349 11.8689H11.932C12.0196 11.8689 12.0852 11.8476 12.129 11.8049C12.1728 11.7623 12.2093 11.6799 12.2384 11.558L12.2822 11.3751L12.698 9.76566C12.8148 9.54619 12.9169 9.39987 13.0044 9.32671C13.1649 9.19259 13.3546 9.12553 13.5735 9.12553C13.9236 9.12553 14.2811 9.30233 14.6459 9.65592L16.5061 11.6312C16.6228 11.7897 16.7469 11.8689 16.8782 11.8689H20.4893C20.927 11.8689 21.1459 11.7775 21.1459 11.5946C21.1459 11.5336 21.124 11.4727 21.0802 11.4117L17.9068 8.10132C17.6588 7.84527 17.5347 7.57093 17.5347 7.2783C17.5347 6.98567 17.6515 6.70523 17.8849 6.43699C18.0746 6.19313 18.443 5.78771 18.9901 5.22074C19.5373 4.65377 20.0151 4.12338 20.4236 3.62956C20.8322 3.13575 21.1021 2.68766 21.2334 2.28529L21.299 2.04753C21.2845 2.02314 21.2772 1.98352 21.2772 1.92865C21.2772 1.87378 21.2699 1.82806 21.2553 1.79148H17.8193C17.6004 1.86464 17.4253 1.97437 17.294 2.12069L17.1627 2.46819C16.7979 3.3095 15.8423 4.60805 14.2957 6.36383C13.9893 6.60769 13.6318 6.72962 13.2233 6.72962Z" fill="#666666"/>
    </symbol>



</svg>